{
  "title": "Orange is the new black S04E10 720p WEBRip x264-TheRival",
  "uid": 14972233,
  "size": 1016898600,
  "categoryP": "video",
  "categoryS": "hd___tv_shows",
  "magnet": "?xt=urn:btih:2b4b4ff6318a3d640fbab9579d40a07c1c05b30f&amp;dn=Orange+is+the+new+black+S04E10+720p+WEBRip+x264-TheRival&amp;tr=udp%3A%2F%2Ftracker.leechers-paradise.org%3A6969&amp;tr=udp%3A%2F%2Fzer0day.ch%3A1337&amp;tr=udp%3A%2F%2Fopen.demonii.com%3A1337&amp;tr=udp%3A%2F%2Ftracker.coppersurfer.tk%3A6969&amp;tr=udp%3A%2F%2Fexodus.desync.com%3A6969",
  "seeders": 87,
  "leechers": 5,
  "uploader": "TheRival",
  "files": 2,
  "time": 1466209304,
  "description": "http://extraimago.com/image/aGs8 \nhttp://extraimago.com/image/aGsa \nhttp://extraimago.com/image/aGsw\r\n\r\nVideo\r\nID : 1\r\nFormat : AVC\r\nFormat/Info : Advanced Video Codec\r\nFormat profile :   \r\nFormat settings, CABAC : Yes\r\nFormat settings, ReFrames : 2 frames\r\nFormat settings, GOP : M=1, N=24\r\nCodec ID : avc1\r\nCodec ID/Info : Advanced Video Coding\r\nDuration : 59mn 34s\r\nSource duration : 59mn 31s\r\nBit rate mode : Variable\r\nBit rate : 2 049 Kbps\r\nMaximum bit rate : 3 315 Kbps\r\nWidth : 1 280 pixels\r\nHeight : 720 pixels\r\nDisplay aspect ratio : 16:9\r\nFrame rate mode : Constant\r\nFrame rate : 23.976 (23976/1000) fps\r\nColor space : YUV\r\nChroma subsampling : 4:2:0\r\nBit depth : 8 bits\r\nScan type : Progressive\r\nBits/(Pixel*Frame) : 0.093\r\nStream size : 873 MiB (90%)\r\nSource stream size : 914 MiB (94%)\r\nEncoded date : UTC 2016-06-17 21:55:28\r\nTagged date : UTC 2016-06-17 22:02:52\r\nColor primaries : BT.709\r\nTransfer characteristics : BT.709\r\nMatrix coefficients : BT.709\r\n\r\nAudio\r\nID : 2\r\nFormat : AAC\r\nFormat/Info : Advanced Audio Codec\r\nFormat profile : LC\r\nCodec ID : 40\r\nDuration : 59mn 31s\r\nBit rate mode : Variable\r\nBit rate : 128 Kbps\r\nMaximum bit rate : 131 Kbps\r\nChannel(s) : 2 channels\r\nChannel positions : Front: L R\r\nSampling rate : 48.0 KHz\r\nFrame rate : 46.875 fps (1024 spf)\r\nCompression mode : Lossy\r\nStream size : 54.5 MiB (6%)\r\nTitle : English (aac 2.0)\r\nLanguage : English\r\nDefault : Yes\r\nAlternate group : 1",
  "parsed": {
    "xt": "urn:btih:2b4b4ff6318a3d640fbab9579d40a07c1c05b30f",
    "dn": "Orange is the new black S04E10 720p WEBRip x264-TheRival",
    "tr": [
      "udp://exodus.desync.com:6969",
      "udp://open.demonii.com:1337",
      "udp://tracker.coppersurfer.tk:6969",
      "udp://tracker.leechers-paradise.org:6969",
      "udp://zer0day.ch:1337"
    ],
    "infoHash": "2b4b4ff6318a3d640fbab9579d40a07c1c05b30f",
    "infoHashBuffer": {
      "type": "Buffer",
      "data": [
        43,
        75,
        79,
        246,
        49,
        138,
        61,
        100,
        15,
        186,
        185,
        87,
        157,
        64,
        160,
        124,
        28,
        5,
        179,
        15
      ]
    },
    "name": "Orange is the new black S04E10 720p WEBRip x264-TheRival",
    "announce": [
      "udp://exodus.desync.com:6969",
      "udp://open.demonii.com:1337",
      "udp://tracker.coppersurfer.tk:6969",
      "udp://tracker.leechers-paradise.org:6969",
      "udp://zer0day.ch:1337"
    ],
    "urlList": []
  },
  "previous": 92,
  "peers": 100,
  "last_updated": "2016-12-24T20:46:39.743Z"
}